NFP 09-13-14.ufo
<glyph name="H" format="1">
  <advance width="654"/>
  <unicode hex="0048"/>
  <outline>
    <contour>
      <point x="599" y="300" type="line"/>
      <point x="55" y="300" type="line"/>
      <point x="55" y="399" type="line"/>
      <point x="599" y="399" type="line"/>
    </contour>
    <component base="I" xOffset="442"/>
    <component base="I"/>
  </outline>
</glyph>
<glyph name="N" format="1">
  <advance width="664"/>
  <unicode hex="004E"/>
  <outline>
    <contour>
      <point x="489" y="0" type="line"/>
      <point x="55" y="685" type="line"/>
      <point x="179" y="685" type="line"/>
      <point x="606" y="0" type="line"/>
    </contour>
    <contour>
      <point x="507" y="0" type="line"/>
      <point x="507" y="685" type="line"/>
      <point x="609" y="685" type="line"/>
      <point x="609" y="0" type="line"/>
    </contour>
    <contour>
      <point x="55" y="0" type="line"/>
      <point x="55" y="685" type="line"/>
      <point x="157" y="685" type="line"/>
      <point x="157" y="0" type="line"/>
    </contour>
  </outline>
</glyph>
<glyph name="O" format="1">
  <advance width="748"/>
  <unicode hex="004F"/>
  <outline>
    <contour>
      <point x="375" y="599" type="curve" smooth="yes"/>
      <point x="231" y="599"/>
      <point x="139" y="476"/>
      <point x="139" y="337" type="curve" smooth="yes"/>
      <point x="139" y="203"/>
      <point x="234" y="86"/>
      <point x="375" y="86" type="curve" smooth="yes"/>
      <point x="515" y="86"/>
      <point x="611" y="203"/>
      <point x="611" y="337" type="curve" smooth="yes"/>
      <point x="611" y="476"/>
      <point x="518" y="599"/>
    </contour>
    <contour>
      <point x="375" y="695" type="curve" smooth="yes"/>
      <point x="574" y="695"/>
      <point x="720" y="534"/>
      <point x="720" y="337" type="curve" smooth="yes"/>
      <point x="720" y="144"/>
      <point x="572" y="-10"/>
      <point x="375" y="-10" type="curve" smooth="yes"/>
      <point x="177" y="-10"/>
      <point x="30" y="144"/>
      <point x="30" y="337" type="curve" smooth="yes"/>
      <point x="30" y="534"/>
      <point x="175" y="695"/>
    </contour>
  </outline>
</glyph>
<glyph name="R" format="1">
  <advance width="564"/>
  <unicode hex="0052"/>
  <outline>
    <contour>
      <point x="55" y="0" type="line"/>
      <point x="55" y="685" type="line"/>
      <point x="157" y="685" type="line"/>
      <point x="157" y="0" type="line"/>
    </contour>
    <contour>
      <point x="425" y="479" type="curve"/>
      <point x="425" y="549"/>
      <point x="376" y="589"/>
      <point x="300" y="589" type="curve" smooth="yes"/>
      <point x="134" y="589" type="line"/>
      <point x="136" y="685" type="line"/>
      <point x="292" y="685" type="line" smooth="yes"/>
      <point x="454" y="685"/>
      <point x="525" y="579"/>
      <point x="525" y="479" type="curve"/>
      <point x="525" y="383"/>
      <point x="458" y="277"/>
      <point x="290" y="277" type="curve" smooth="yes"/>
      <point x="134" y="277" type="line"/>
      <point x="136" y="372" type="line"/>
      <point x="302" y="372" type="line" smooth="yes"/>
      <point x="378" y="372"/>
      <point x="425" y="412"/>
    </contour>
    <contour>
      <point x="254" y="287" type="line"/>
      <point x="349" y="314" type="line"/>
      <point x="544" y="0" type="line"/>
      <point x="425" y="0" type="line"/>
    </contour>
  </outline>
</glyph>
<glyph name="S" format="1">
  <advance width="601"/>
  <unicode hex="0053"/>
  <outline>
    <contour>
      <point x="474" y="520" type="line"/>
      <point x="427" y="567"/>
      <point x="387" y="595"/>
      <point x="305" y="595" type="curve"/>
      <point x="226" y="595"/>
      <point x="166" y="556"/>
      <point x="166" y="495" type="curve"/>
      <point x="166" y="333"/>
      <point x="569" y="460"/>
      <point x="569" y="188" type="curve"/>
      <point x="569" y="58"/>
      <point x="465" y="-10"/>
      <point x="311" y="-10" type="curve"/>
      <point x="173" y="-10"/>
      <point x="75" y="56"/>
      <point x="30" y="125" type="curve"/>
      <point x="109" y="181" type="line"/>
      <point x="154" y="124"/>
      <point x="211" y="87"/>
      <point x="310" y="87" type="curve"/>
      <point x="392" y="87"/>
      <point x="469" y="114"/>
      <point x="469" y="180" type="curve"/>
      <point x="469" y="368"/>
      <point x="68" y="225"/>
      <point x="68" y="498" type="curve"/>
      <point x="68" y="608"/>
      <point x="162" y="690"/>
      <point x="303" y="690" type="curve"/>
      <point x="428" y="690"/>
      <point x="491" y="647"/>
      <point x="553" y="577" type="curve"/>
    </contour>
  </outline>
</glyph>
<glyph name="U" format="1">
  <advance width="656"/>
  <unicode hex="0055"/>
  <outline>
    <contour>
      <point x="328" y="-10" type="curve" smooth="yes"/>
      <point x="502" y="-10"/>
      <point x="601" y="68"/>
      <point x="601" y="237" type="curve" smooth="yes"/>
      <point x="601" y="685" type="line"/>
      <point x="499" y="685" type="line"/>
      <point x="499" y="234" type="line" smooth="yes"/>
      <point x="499" y="139"/>
      <point x="424" y="87"/>
      <point x="328" y="87" type="curve" smooth="yes"/>
      <point x="232" y="87"/>
      <point x="157" y="140"/>
      <point x="157" y="234" type="curve" smooth="yes"/>
      <point x="157" y="685" type="line"/>
      <point x="55" y="685" type="line"/>
      <point x="55" y="237" type="line" smooth="yes"/>
      <point x="55" y="68"/>
      <point x="154" y="-10"/>
    </contour>
  </outline>
</glyph>
<glyph name="W" format="1">
  <advance width="896"/>
  <unicode hex="0057"/>
  <outline>
    <contour>
      <point x="911" y="685" type="line"/>
      <point x="696" y="0" type="line"/>
      <point x="597" y="0" type="line"/>
      <point x="809" y="685" type="line"/>
    </contour>
    <contour>
      <point x="397" y="685" type="line"/>
      <point x="499" y="685" type="line"/>
      <point x="696" y="0" type="line"/>
      <point x="597" y="0" type="line"/>
    </contour>
    <contour>
      <point x="499" y="685" type="line"/>
      <point x="298" y="0" type="line"/>
      <point x="199" y="0" type="line"/>
      <point x="397" y="685" type="line"/>
    </contour>
    <contour>
      <point x="-15" y="685" type="line"/>
      <point x="87" y="685" type="line"/>
      <point x="298" y="0" type="line"/>
      <point x="199" y="0" type="line"/>
    </contour>
  </outline>
</glyph>
<glyph name="Y" format="1">
  <advance width="537"/>
  <unicode hex="0059"/>
  <outline>
    <contour>
      <point x="552" y="685" type="line"/>
      <point x="317" y="264" type="line"/>
      <point x="218" y="264" type="line"/>
      <point x="448" y="685" type="line"/>
    </contour>
    <contour>
      <point x="-15" y="685" type="line"/>
      <point x="90" y="685" type="line"/>
      <point x="317" y="264" type="line"/>
      <point x="218" y="264" type="line"/>
    </contour>
    <contour>
      <point x="218" y="0" type="line"/>
      <point x="218" y="264" type="line"/>
      <point x="317" y="264" type="line"/>
      <point x="317" y="0" type="line"/>
    </contour>
  </outline>
</glyph>
<glyph name="a" format="1">
  <advance width="516"/>
  <unicode hex="0061"/>
  <outline>
    <contour>
      <point x="29" y="388" type="line"/>
      <point x="87" y="478"/>
      <point x="164.406113537" y="505.0"/>
      <point x="257" y="505" type="curve" smooth="yes"/>
      <point x="367" y="505"/>
      <point x="470" y="460"/>
      <point x="464" y="320" type="curve" smooth="yes"/>
      <point x="459" y="138" type="line"/>
      <point x="460" y="104"/>
      <point x="452" y="75"/>
      <point x="518" y="86" type="curve"/>
      <point x="505" y="-5" type="line"/>
      <point x="399" y="-20"/>
      <point x="350" y="10"/>
      <point x="355" y="142" type="curve" smooth="yes"/>
      <point x="362" y="324" type="line" smooth="yes"/>
      <point x="364" y="396"/>
      <point x="310" y="418"/>
      <point x="251" y="418" type="curve"/>
      <point x="193" y="418"/>
      <point x="146" y="398"/>
      <point x="111" y="347" type="curve"/>
    </contour>
    <contour>
      <point x="405" y="225" type="line"/>
      <point x="316" y="233"/>
      <point x="122" y="233"/>
      <point x="122" y="139" type="curve"/>
      <point x="122" y="101"/>
      <point x="149" y="71"/>
      <point x="205" y="71" type="curve"/>
      <point x="273" y="71"/>
      <point x="351" y="137"/>
      <point x="378" y="204" type="curve"/>
      <point x="427" y="188" type="line"/>
      <point x="388" y="89"/>
      <point x="334" y="-13"/>
      <point x="197" y="-13" type="curve"/>
      <point x="107" y="-13"/>
      <point x="25" y="27"/>
      <point x="25" y="137" type="curve"/>
      <point x="25" y="272"/>
      <point x="228" y="323"/>
      <point x="413" y="305" type="curve"/>
    </contour>
    <contour>
      <point x="257" y="510" type="move" name="top"/>
    </contour>
  </outline>
</glyph>
<glyph name="c" format="1">
  <advance width="490"/>
  <unicode hex="0063"/>
  <outline>
    <contour>
      <point x="373" y="332" type="curve"/>
      <point x="460" y="353" type="line"/>
      <point x="445" y="461"/>
      <point x="416" y="509"/>
      <point x="300" y="509" type="curve"/>
      <point x="128" y="509"/>
      <point x="20" y="389"/>
      <point x="20" y="245" type="curve" smooth="yes"/>
      <point x="20" y="86"/>
      <point x="101" y="-13"/>
      <point x="232" y="-13" type="curve" smooth="yes"/>
      <point x="353" y="-13"/>
      <point x="422" y="53"/>
      <point x="476" y="111" type="curve"/>
      <point x="469" y="116" type="line"/>
      <point x="392" y="62"/>
      <point x="341" y="53"/>
      <point x="309" y="53" type="curve"/>
      <point x="208" y="53"/>
      <point x="129" y="133"/>
      <point x="129" y="264" type="curve"/>
      <point x="129" y="350"/>
      <point x="158" y="482"/>
      <point x="261" y="482" type="curve"/>
      <point x="337" y="482"/>
      <point x="364" y="410"/>
    </contour>
  </outline>
</glyph>
<glyph name="d" format="1">
  <advance width="575"/>
  <unicode hex="0064"/>
  <outline>
    <contour>
      <point x="306" y="685" type="line"/>
      <point x="399" y="685" type="line"/>
      <point x="394" y="640" type="line"/>
      <point x="298" y="674" type="line"/>
    </contour>
    <contour>
      <point x="379" y="0" type="line"/>
      <point x="379" y="685" type="line"/>
      <point x="481" y="685" type="line"/>
      <point x="481" y="0" type="line"/>
    </contour>
    <contour>
      <point x="547" y="0" type="line"/>
      <point x="454" y="0" type="line"/>
      <point x="459" y="45" type="line"/>
      <point x="555" y="11" type="line"/>
    </contour>
    <component base="boucle" xOffset="-19"/>
  </outline>
</glyph>
<glyph name="g" format="1">
  <advance width="526"/>
  <unicode hex="0067"/>
  <outline>
    <contour>
      <point x="519" y="397" type="line"/>
      <point x="463" y="417"/>
      <point x="409" y="395"/>
      <point x="409" y="311" type="curve"/>
      <point x="360" y="339" type="line"/>
      <point x="382" y="462"/>
      <point x="453" y="523"/>
      <point x="546" y="476" type="curve"/>
    </contour>
    <contour>
      <point x="210" y="186" type="line"/>
      <point x="197.157894737" y="171.0"/>
      <point x="149.0" y="163.0"/>
      <point x="149" y="133" type="curve"/>
      <point x="149" y="27"/>
      <point x="478.0" y="140.0"/>
      <point x="478" y="-64" type="curve"/>
      <point x="478" y="-161"/>
      <point x="394" y="-221"/>
      <point x="247" y="-221" type="curve"/>
      <point x="72" y="-221"/>
      <point x="20" y="-148"/>
      <point x="20" y="-77" type="curve" smooth="yes"/>
      <point x="20.0" y="-12.488"/>
      <point x="85" y="51"/>
      <point x="154" y="51" type="curve" smooth="yes"/>
      <point x="152" y="51"/>
      <point x="152.0" y="54.0"/>
      <point x="152" y="54" type="curve"/>
      <point x="221" y="17" type="line"/>
      <point x="178" y="3"/>
      <point x="112" y="-10"/>
      <point x="112" y="-67" type="curve"/>
      <point x="112" y="-104"/>
      <point x="162" y="-138"/>
      <point x="246" y="-138" type="curve"/>
      <point x="330" y="-138"/>
      <point x="382" y="-108"/>
      <point x="380" y="-68" type="curve"/>
      <point x="380" y="25"/>
      <point x="48" y="-61"/>
      <point x="48" y="114" type="curve"/>
      <point x="48" y="173"/>
      <point x="88.3846153846" y="198.0"/>
      <point x="153" y="226" type="curve"/>
    </contour>
    <contour>
      <point x="68" y="336" type="line"/>
      <point x="68" y="336"/>
      <point x="68" y="336"/>
      <point x="68" y="336" type="curve" smooth="yes"/>
      <point x="68" y="434"/>
      <point x="154" y="504"/>
      <point x="249" y="504" type="curve" smooth="yes"/>
      <point x="345" y="504"/>
      <point x="430" y="434"/>
      <point x="430" y="336" type="curve" smooth="yes"/>
      <point x="430" y="241"/>
      <point x="345" y="173"/>
      <point x="249" y="173" type="curve" smooth="yes"/>
      <point x="154" y="173"/>
      <point x="68" y="241"/>
      <point x="68" y="336" type="curve"/>
      <point x="168" y="336" type="line"/>
      <point x="168.0" y="294.573170732"/>
      <point x="200.0" y="257.0"/>
      <point x="249" y="257" type="curve" smooth="yes"/>
      <point x="298.0" y="257.0"/>
      <point x="329.0" y="294.573170732"/>
      <point x="329" y="336" type="curve" smooth="yes"/>
      <point x="329.0" y="377.517241379"/>
      <point x="298.0" y="420.0"/>
      <point x="249" y="420" type="curve" smooth="yes"/>
      <point x="200.0" y="420.0"/>
      <point x="168.0" y="377.517241379"/>
      <point x="168" y="336" type="curve" smooth="yes"/>
      <point x="168" y="336"/>
      <point x="168" y="336"/>
      <point x="168" y="336" type="curve"/>
    </contour>
  </outline>
</glyph>
<glyph name="i" format="1">
  <advance width="307"/>
  <unicode hex="0069"/>
  <outline>
    <contour>
      <point x="38" y="500" type="line"/>
      <point x="131" y="500" type="line"/>
      <point x="126" y="455" type="line"/>
      <point x="30" y="489" type="line"/>
    </contour>
    <contour>
      <point x="279" y="0" type="line"/>
      <point x="186" y="0" type="line"/>
      <point x="191" y="45" type="line"/>
      <point x="287" y="11" type="line"/>
    </contour>
    <contour>
      <point x="28" y="0" type="line"/>
      <point x="20" y="11" type="line"/>
      <point x="116" y="45" type="line"/>
      <point x="121" y="0" type="line"/>
    </contour>
    <contour>
      <point x="161" y="571" type="curve" smooth="yes"/>
      <point x="196" y="571"/>
      <point x="225" y="600"/>
      <point x="225" y="635" type="curve" smooth="yes"/>
      <point x="225" y="671"/>
      <point x="196" y="700"/>
      <point x="161" y="700" type="curve" smooth="yes"/>
      <point x="126" y="700"/>
      <point x="96" y="671"/>
      <point x="96" y="635" type="curve" smooth="yes"/>
      <point x="96" y="600"/>
      <point x="126" y="571"/>
    </contour>
    <component base="dotlessi" xOffset="56"/>
  </outline>
</glyph>
<glyph name="o" format="1">
  <advance width="576"/>
  <unicode hex="006F"/>
  <outline>
    <contour>
      <point x="252" y="-10" type="curve"/>
      <point x="423" y="-10"/>
      <point x="561" y="113"/>
      <point x="561" y="265" type="curve" smooth="yes"/>
      <point x="561" y="402"/>
      <point x="455" y="512"/>
      <point x="324" y="510" type="curve"/>
      <point x="153" y="510"/>
      <point x="15" y="394"/>
      <point x="15" y="235" type="curve" smooth="yes"/>
      <point x="15" y="100"/>
      <point x="121" y="-10"/>
    </contour>
    <contour>
      <point x="256" y="473" type="curve"/>
      <point x="364" y="473"/>
      <point x="452" y="367"/>
      <point x="452" y="236" type="curve"/>
      <point x="452" y="123"/>
      <point x="393" y="29"/>
      <point x="320" y="27" type="curve"/>
      <point x="212" y="29"/>
      <point x="124" y="135"/>
      <point x="124" y="264" type="curve"/>
      <point x="124" y="379"/>
      <point x="183" y="473"/>
    </contour>
  </outline>
</glyph>
<glyph name="u" format="1">
  <advance width="612"/>
  <unicode hex="0075"/>
  <outline>
    <contour>
      <point x="333" y="500" type="line"/>
      <point x="426" y="500" type="line"/>
      <point x="421" y="455" type="line"/>
      <point x="325" y="489" type="line"/>
    </contour>
    <contour>
      <point x="8" y="500" type="line"/>
      <point x="101" y="500" type="line"/>
      <point x="96" y="455" type="line"/>
      <point x="0" y="489" type="line"/>
    </contour>
    <contour>
      <point x="79" y="500" type="line"/>
      <point x="188" y="500" type="line"/>
      <point x="188" y="227" type="line" smooth="yes"/>
      <point x="188" y="96"/>
      <point x="217" y="56"/>
      <point x="279" y="56" type="curve"/>
      <point x="340" y="56"/>
      <point x="419" y="87"/>
      <point x="434" y="159" type="curve"/>
      <point x="443" y="160" type="line"/>
      <point x="421" y="72"/>
      <point x="321" y="-10"/>
      <point x="227" y="-10" type="curve"/>
      <point x="114" y="-10"/>
      <point x="79" y="41"/>
      <point x="79" y="200" type="curve" smooth="yes"/>
    </contour>
    <contour>
      <point x="501" y="500" type="line"/>
      <point x="501" y="20" type="line"/>
      <point x="399" y="-10" type="line"/>
      <point x="399" y="500" type="line"/>
    </contour>
    <contour>
      <point x="574" y="45" type="line"/>
      <point x="582" y="34" type="line"/>
      <point x="400" y="-10" type="line"/>
      <point x="481" y="45" type="line"/>
    </contour>
  </outline>
</glyph>
<glyph name="v" format="1">
  <advance width="457"/>
  <unicode hex="0076"/>
  <outline>
    <contour>
      <point x="280" y="0" type="line"/>
      <point x="178" y="0" type="line"/>
      <point x="367" y="500" type="line"/>
      <point x="477" y="500" type="line"/>
    </contour>
    <contour>
      <point x="177" y="0" type="line"/>
      <point x="-20" y="500" type="line"/>
      <point x="90" y="500" type="line"/>
      <point x="279" y="0" type="line"/>
    </contour>
  </outline>
</glyph>
<glyph name="germandbls" format="1">
  <advance width="580"/>
  <unicode hex="00DF"/>
  <outline>
    <contour>
      <point x="172" y="568"/>
      <point x="208.0" y="604.0"/>
      <point x="257.0" y="604.0" type="curve"/>
      <point x="307.0" y="604.0"/>
      <point x="340.0" y="563.0"/>
      <point x="340.0" y="524.0" type="curve"/>
      <point x="340.0" y="489.0"/>
      <point x="318.0" y="471.0"/>
      <point x="293.0" y="453.0" type="curve" smooth="yes"/>
      <point x="261.0" y="429.0"/>
      <point x="225.0" y="405.0"/>
      <point x="225.0" y="342.0" type="curve"/>
      <point x="225.0" y="246.0"/>
      <point x="288" y="236"/>
      <point x="345" y="222" type="curve" smooth="yes"/>
      <point x="390" y="211"/>
      <point x="431.0" y="198.0"/>
      <point x="431.0" y="140.0" type="curve"/>
      <point x="431.0" y="94.0"/>
      <point x="391.0" y="72.0"/>
      <point x="354.0" y="72.0" type="curve"/>
      <point x="310.0" y="72.0"/>
      <point x="286.0" y="83.0"/>
      <point x="257.0" y="96.0" type="curve"/>
      <point x="211.0" y="26.0" type="line"/>
      <point x="247.0" y="6.0"/>
      <point x="290.0" y="-10.0"/>
      <point x="351.0" y="-10.0" type="curve" smooth="yes"/>
      <point x="460.0" y="-10.0"/>
      <point x="530.0" y="51.0"/>
      <point x="530.0" y="140.0" type="curve"/>
      <point x="530.0" y="243.0"/>
      <point x="468" y="273"/>
      <point x="411" y="291" type="curve" smooth="yes"/>
      <point x="361" y="308"/>
      <point x="317" y="315"/>
      <point x="317" y="349" type="curve" smooth="yes"/>
      <point x="317" y="386"/>
      <point x="347" y="399"/>
      <point x="379" y="420" type="curve" smooth="yes"/>
      <point x="409" y="440"/>
      <point x="438" y="470"/>
      <point x="438" y="524" type="curve"/>
      <point x="438" y="616"/>
      <point x="370.0" y="690.0"/>
      <point x="257.0" y="690.0" type="curve"/>
      <point x="131.0" y="690.0"/>
      <point x="70" y="615"/>
      <point x="70.0" y="529.0" type="curve" smooth="yes"/>
      <point x="70" y="0" type="line"/>
      <point x="172" y="0" type="line"/>
      <point x="172.0" y="510.0" type="line" smooth="yes"/>
    </contour>
  </outline>
</glyph>
<glyph name="afii10048" format="1">
  <advance width="985"/>
  <unicode hex="042E"/>
  <outline>
    <contour>
      <point x="322" y="289" type="line"/>
      <point x="55" y="289" type="line"/>
      <point x="55" y="388" type="line"/>
      <point x="322" y="388" type="line"/>
    </contour>
    <component base="I"/>
    <component base="O" xOffset="237"/>
  </outline>
</glyph>
<glyph name="afii10081" format="1">
  <advance width="530"/>
  <unicode hex="043F"/>
  <outline>
    <contour>
      <point x="381" y="500" type="line"/>
      <point x="381" y="418" type="line"/>
      <point x="97" y="418" type="line"/>
      <point x="97" y="500" type="line"/>
    </contour>
    <component base="dotlessi" xOffset="318"/>
    <component base="dotlessi"/>
  </outline>
</glyph>
<glyph name="afii10091" format="1">
  <advance width="848"/>
  <unicode hex="0449"/>
  <outline>
    <contour>
      <point x="563" y="-185" type="line"/>
      <point x="665" y="-185" type="line"/>
      <point x="665" y="54" type="line"/>
      <point x="563" y="54" type="line"/>
    </contour>
    <component base="afii10081" yScale="-1" xOffset="318" yOffset="500"/>
    <component base="afii10081" yScale="-1" yOffset="500"/>
  </outline>
</glyph>
<glyph name="afii10108" format="1">
  <advance width="530"/>
  <unicode hex="045B"/>
  <outline>
    <contour>
      <point x="228" y="630" type="line"/>
      <point x="228" y="548" type="line"/>
      <point x="-16" y="548" type="line"/>
      <point x="-16" y="630" type="line"/>
    </contour>
    <component base="h"/>
  </outline>
</glyph>
<glyph name="v_u" format="1">
  <advance width="535"/>
  <unicode hex="0909"/>
  <outline>
    <contour>
      <point x="236" y="409" type="line"/>
      <point x="327" y="428"/>
      <point x="380" y="445"/>
      <point x="380" y="519" type="curve" smooth="yes"/>
      <point x="380" y="562"/>
      <point x="348" y="603"/>
      <point x="293" y="603" type="curve"/>
      <point x="286" y="655" type="line"/>
      <point x="389.0" y="656.620253165"/>
      <point x="469" y="600"/>
      <point x="469" y="510" type="curve"/>
      <point x="468" y="409"/>
      <point x="385.0" y="349.0"/>
      <point x="272" y="348" type="curve"/>
    </contour>
    <contour>
      <point x="258" y="336" type="curve"/>
      <point x="236" y="409" type="line"/>
      <point x="391.0" y="425.474226804"/>
      <point x="503" y="327"/>
      <point x="503" y="221" type="curve"/>
      <point x="503" y="64"/>
      <point x="403.0" y="-6.0"/>
      <point x="267" y="-6" type="curve" smooth="yes"/>
      <point x="86" y="-6"/>
      <point x="8" y="133"/>
      <point x="-15" y="255" type="curve"/>
      <point x="64" y="290" type="line"/>
      <point x="92" y="171"/>
      <point x="152" y="76"/>
      <point x="275" y="76" type="curve" smooth="yes"/>
      <point x="360" y="76"/>
      <point x="412" y="130"/>
      <point x="412" y="205" type="curve"/>
      <point x="412" y="275"/>
      <point x="361" y="356"/>
    </contour>
    <component base="component_6" xOffset="143"/>
    <component base="component_6" xOffset="-108"/>
  </outline>
</glyph>
<glyph name="dn_bha" format="1">
  <advance width="640"/>
  <unicode hex="092D"/>
  <outline>
    <contour>
      <point x="186" y="312" type="line"/>
      <point x="186" y="617" type="line" smooth="yes"/>
      <point x="186" y="637"/>
      <point x="172" y="651"/>
      <point x="151" y="651" type="curve" smooth="yes"/>
      <point x="130" y="651"/>
      <point x="112" y="636"/>
      <point x="112" y="617" type="curve" smooth="yes"/>
      <point x="112" y="598"/>
      <point x="129" y="584"/>
      <point x="151" y="584" type="curve" smooth="yes"/>
      <point x="173" y="584"/>
      <point x="186" y="596"/>
      <point x="186" y="617" type="curve"/>
      <point x="268" y="617" type="line"/>
      <point x="268" y="546"/>
      <point x="227" y="502"/>
      <point x="151" y="502" type="curve" smooth="yes"/>
      <point x="75" y="502"/>
      <point x="30" y="558"/>
      <point x="30" y="617" type="curve" smooth="yes"/>
      <point x="30" y="676"/>
      <point x="78" y="733"/>
      <point x="151" y="733" type="curve" smooth="yes"/>
      <point x="224" y="733"/>
      <point x="268" y="685"/>
      <point x="268" y="617" type="curve" smooth="yes"/>
      <point x="268" y="312" type="line"/>
    </contour>
    <component base="component_10" xOffset="83"/>
    <component base="kana" xOffset="356"/>
  </outline>
</glyph>
<glyph name="dn_ma" format="1">
  <advance width="557"/>
  <unicode hex="092E"/>
  <outline>
    <contour>
      <point x="98" y="326" type="line"/>
      <point x="98" y="670" type="line"/>
      <point x="192" y="670" type="line"/>
      <point x="192" y="326" type="line"/>
    </contour>
    <component base="dn_na"/>
  </outline>
</glyph>
<glyph name="dn_ssa" format="1">
  <advance width="600"/>
  <unicode hex="0937"/>
  <outline>
    <contour>
      <point x="118" y="555" type="line"/>
      <point x="169" y="628" type="line"/>
      <point x="485" y="421" type="line"/>
      <point x="434" y="348" type="line"/>
    </contour>
    <component base="c_pa"/>
  </outline>
</glyph>
<glyph name="component_10" format="1">
  <advance width="630"/>
  <outline>
    <contour>
      <point x="368" y="284" type="line"/>
      <point x="113" y="284" type="line"/>
      <point x="113" y="284"/>
      <point x="96" y="277"/>
      <point x="96" y="287" type="curve" smooth="yes"/>
      <point x="96" y="293"/>
      <point x="115" y="294"/>
      <point x="109" y="294" type="curve"/>
      <point x="125" y="294"/>
      <point x="110" y="316"/>
      <point x="110" y="324" type="curve"/>
      <point x="187" y="324" type="line"/>
      <point x="187" y="234"/>
      <point x="160" y="203"/>
      <point x="137" y="203" type="curve"/>
      <point x="71" y="203"/>
      <point x="10" y="233"/>
      <point x="10" y="284" type="curve"/>
      <point x="10" y="341"/>
      <point x="66" y="366"/>
      <point x="113" y="366" type="curve" smooth="yes"/>
      <point x="368" y="366" type="line"/>
    </contour>
  </outline>
</glyph>
<glyph name="component_3" format="1">
  <advance width="501"/>
  <outline>
    <contour>
      <point x="387" y="685" type="line"/>
      <point x="336" y="730"/>
      <point x="275" y="741"/>
      <point x="206" y="741" type="curve" smooth="yes"/>
      <point x="150" y="741"/>
      <point x="101" y="725"/>
      <point x="62" y="700" type="curve"/>
      <point x="9" y="766" type="line"/>
      <point x="57" y="795"/>
      <point x="122" y="823"/>
      <point x="206" y="823" type="curve" smooth="yes"/>
      <point x="343" y="823"/>
      <point x="420" y="774"/>
      <point x="492" y="685" type="curve"/>
    </contour>
  </outline>
</glyph>
<glyph name="component_8" format="1">
  <advance width="630"/>
  <outline>
    <contour>
      <point x="305" y="266" type="curve"/>
      <point x="395.0" y="266.0"/>
      <point x="407" y="351"/>
      <point x="407" y="388" type="curve" smooth="yes"/>
      <point x="407" y="663" type="line"/>
      <point x="499" y="663" type="line"/>
      <point x="499" y="388" type="line" smooth="yes"/>
      <point x="499" y="325"/>
      <point x="484" y="184"/>
      <point x="305" y="184" type="curve" smooth="yes"/>
      <point x="126" y="184"/>
      <point x="111" y="325"/>
      <point x="111" y="388" type="curve" smooth="yes"/>
      <point x="111" y="663" type="line"/>
      <point x="203" y="663" type="line"/>
      <point x="203" y="388" type="line" smooth="yes"/>
      <point x="203" y="351"/>
      <point x="215.0" y="266.0"/>
    </contour>
  </outline>
</glyph>
<glyph name="dn_ga.e" format="1">
  <advance width="551"/>
  <outline>
    <contour>
      <point x="98" y="326" type="line"/>
      <point x="98" y="670" type="line"/>
      <point x="192" y="670" type="line"/>
      <point x="192" y="326" type="line"/>
    </contour>
    <contour>
      <point x="192" y="324" type="line"/>
      <point x="113" y="284" type="line"/>
      <point x="113" y="284"/>
      <point x="96" y="277"/>
      <point x="96" y="287" type="curve" smooth="yes"/>
      <point x="96" y="293"/>
      <point x="115" y="294"/>
      <point x="109" y="294" type="curve"/>
      <point x="125" y="294"/>
      <point x="110" y="316"/>
      <point x="110" y="324" type="curve"/>
      <point x="192" y="324" type="line"/>
      <point x="192" y="234"/>
      <point x="160" y="203"/>
      <point x="137" y="203" type="curve"/>
      <point x="71" y="203"/>
      <point x="10" y="233"/>
      <point x="10" y="284" type="curve"/>
      <point x="10" y="341"/>
      <point x="66" y="366"/>
      <point x="113" y="366" type="curve" smooth="yes"/>
      <point x="192" y="366" type="line"/>
    </contour>
    <component base="component_2" xOffset="-46"/>
    <component base="kana" xOffset="267"/>
    <component base="component_6" xOffset="-108"/>
  </outline>
</glyph>
